<svg width="41" height="40" viewBox="0 0 41 40" fill="none" xmlns="http://www.w3.org/2000/svg">
<path fill-rule="evenodd" clip-rule="evenodd" d="M10.0864 0H30.2591C32.8791 0.00539822 35.3948 1.01849 37.2762 2.82589C39.1576 4.63329 40.258 7.09391 40.3454 9.6895H24.1628C23.7175 9.69902 23.2853 9.84102 22.9225 10.0971C22.5596 10.3531 22.2827 10.7113 22.1278 11.1253L18.2354 21.6957L14.4408 11.3984C14.3571 11.0455 14.1867 10.7185 13.9449 10.4465C13.7031 10.1745 13.3972 9.96593 13.0545 9.83924C12.8589 9.75893 12.6522 9.70845 12.4413 9.6895C12.1397 9.66847 11.8369 9.71049 11.5527 9.81282C11.1948 9.94225 10.8767 10.1611 10.6291 10.4481C10.3816 10.7351 10.213 11.0807 10.1397 11.4512L6.34508 21.7485L2.45272 11.1782L0.675386 6.40388C1.41204 4.52191 2.70428 2.90398 4.38325 1.76149C6.06222 0.619 8.04984 0.00509659 10.0864 0V0ZM40.3543 14.0938V29.9934C40.3473 32.6452 39.2814 35.1863 37.3897 37.0614C35.498 38.9365 32.9343 39.993 30.2591 40H10.0864C7.41264 39.9907 4.85124 38.9332 2.96145 37.0583C1.07167 35.1835 0.00702587 32.6436 0 29.9934L0 17.168L4.22116 28.6633C4.31009 29.004 4.48107 29.3182 4.71943 29.579C4.95779 29.8399 5.25642 30.0395 5.58971 30.1608C5.87506 30.2586 6.17689 30.3005 6.47838 30.2841C6.69349 30.2726 6.9059 30.231 7.10933 30.1608C7.43944 30.0392 7.73568 29.8417 7.97362 29.5844C8.21157 29.3271 8.3844 29.0174 8.47787 28.6809L12.2991 18.2603L16.1204 28.6633C16.2093 29.004 16.3803 29.3182 16.6187 29.579C16.857 29.8399 17.1557 30.0395 17.489 30.1608C17.7743 30.2586 18.0761 30.3005 18.3776 30.2841C18.5807 30.2694 18.781 30.2279 18.973 30.1608C19.3031 30.0392 19.5994 29.8417 19.8373 29.5844C20.0753 29.3271 20.2481 29.0174 20.3416 28.6809L25.7713 14.0938H29.6815V28.1876C29.6838 28.764 29.9158 29.316 30.3269 29.7235C30.7381 30.1311 31.295 30.361 31.8765 30.3634C32.4579 30.361 33.0148 30.1311 33.426 29.7235C33.8371 29.316 34.0691 28.764 34.0715 28.1876V14.0938H40.3988H40.3543Z" fill="url(#paint0_linear_5856_1328)"/>
<defs>
<linearGradient id="paint0_linear_5856_1328" x1="31.6273" y1="36.9401" x2="8.72235" y2="2.67025" gradientUnits="userSpaceOnUse">
<stop stop-color="#00923F"/>
<stop offset="1" stop-color="#84C225"/>
</linearGradient>
</defs>
</svg>
