<svg width="50" height="50" viewBox="0 0 50 50" fill="none" xmlns="http://www.w3.org/2000/svg">
<g clip-path="url(#clip0_9_142)">
<path d="M25 50C38.8071 50 50 38.8071 50 25C50 11.1929 38.8071 0 25 0C11.1929 0 0 11.1929 0 25C0 38.8071 11.1929 50 25 50Z" fill="#EAB14D"/>
<path d="M24.9982 0C24.552 0 24.1085 0.012207 23.668 0.0352539C36.8566 0.726855 47.3378 11.6392 47.3378 25C47.3378 38.3608 36.8566 49.2731 23.668 49.9647C24.1085 49.9878 24.552 50 24.9982 50C38.8054 50 49.9983 38.8071 49.9983 25C49.9983 11.1929 38.8054 0 24.9982 0Z" fill="#E49542"/>
<path d="M25.0007 44.4811C35.7598 44.4811 44.4818 35.7591 44.4818 25C44.4818 14.2408 35.7598 5.5188 25.0007 5.5188C14.2415 5.5188 5.51953 14.2408 5.51953 25C5.51953 35.7591 14.2415 44.4811 25.0007 44.4811Z" fill="#F4FBFF"/>
<path d="M25.0005 5.5188C24.4609 5.5188 23.9269 5.54175 23.3984 5.58472C33.4081 6.39956 41.2776 14.7803 41.2776 25C41.2776 35.2196 33.4081 43.6002 23.3984 44.4152C23.9269 44.4583 24.4609 44.4812 25.0005 44.4812C35.7597 44.4812 44.4816 35.7591 44.4816 25C44.4816 14.241 35.7597 5.5188 25.0005 5.5188Z" fill="#DAF1F4"/>
<path d="M25.0006 11.5148C24.5839 11.5148 24.2461 11.1771 24.2461 10.7604V9.65293C24.2461 9.23623 24.5839 8.89844 25.0006 8.89844C25.4173 8.89844 25.7552 9.23623 25.7552 9.65293V10.7604C25.7552 11.1771 25.4173 11.5148 25.0006 11.5148Z" fill="#2B4D66"/>
<path d="M35.028 15.7027C34.8348 15.7027 34.6418 15.629 34.4944 15.4818C34.1998 15.187 34.1998 14.7094 34.4945 14.4147L35.2776 13.6317C35.5722 13.3369 36.05 13.337 36.3447 13.6317C36.6393 13.9264 36.6393 14.404 36.3446 14.6987L35.5615 15.4818C35.4141 15.629 35.2211 15.7027 35.028 15.7027Z" fill="#2B4D66"/>
<path d="M40.2643 25.7546H39.1568C38.74 25.7546 38.4023 25.4168 38.4023 25.0001C38.4023 24.5834 38.7401 24.2456 39.1568 24.2456H40.2643C40.6811 24.2456 41.0187 24.5834 41.0187 25.0001C41.0187 25.4168 40.681 25.7546 40.2643 25.7546Z" fill="#2B4D66"/>
<path d="M35.7524 36.5658C35.5593 36.5658 35.3662 36.492 35.2188 36.3448L34.4358 35.5618C34.1412 35.267 34.1412 34.7894 34.4358 34.4946C34.7305 34.2 35.2082 34.2 35.503 34.4946L36.286 35.2776C36.5806 35.5723 36.5806 36.05 36.286 36.3448C36.1386 36.492 35.9455 36.5658 35.7524 36.5658Z" fill="#2B4D66"/>
<path d="M24.9186 41.02C24.5019 41.02 24.1641 40.6822 24.1641 40.2655V39.1581C24.1641 38.7413 24.5019 38.4036 24.9186 38.4036C25.3353 38.4036 25.673 38.7414 25.673 39.1581V40.2655C25.673 40.6822 25.3353 41.02 24.9186 41.02Z" fill="#2B4D66"/>
<path d="M14.1061 36.5077C13.913 36.5077 13.7198 36.434 13.5726 36.2866C13.2778 35.992 13.2779 35.5142 13.5726 35.2195L14.3557 34.4365C14.6504 34.142 15.128 34.1419 15.4228 34.4366C15.7174 34.7312 15.7174 35.209 15.4227 35.5037L14.6396 36.2867C14.4923 36.4341 14.2991 36.5077 14.1061 36.5077Z" fill="#2B4D66"/>
<path d="M10.7604 25.6726H9.65293C9.23623 25.6726 8.89844 25.3348 8.89844 24.9181C8.89844 24.5014 9.23623 24.1636 9.65293 24.1636H10.7604C11.1771 24.1636 11.5148 24.5014 11.5148 24.9181C11.5149 25.3348 11.1771 25.6726 10.7604 25.6726Z" fill="#2B4D66"/>
<path d="M14.9478 15.6447C14.7547 15.6447 14.5616 15.571 14.4143 15.4237L13.6312 14.6406C13.3365 14.3459 13.3364 13.8683 13.6311 13.5736C13.9258 13.2789 14.4034 13.2788 14.6982 13.5735L15.4813 14.3566C15.7759 14.6512 15.776 15.1289 15.4814 15.4237C15.3339 15.5709 15.1408 15.6447 14.9478 15.6447Z" fill="#2B4D66"/>
<path d="M24.9986 25.7545H18.5904C18.1737 25.7545 17.8359 25.4166 17.8359 24.9999C17.8359 24.5832 18.1737 24.2454 18.5904 24.2454H24.244V14.6461C24.244 14.2294 24.5818 13.8916 24.9985 13.8916C25.4152 13.8916 25.753 14.2294 25.753 14.6461V24.9999C25.7531 25.4166 25.4153 25.7545 24.9986 25.7545Z" fill="#2B4D66"/>
<path d="M32.7416 29.7354C32.6254 29.7354 32.5076 29.7084 32.3971 29.6517L24.6557 25.6708C24.2851 25.4803 24.1392 25.0254 24.3298 24.6548C24.5203 24.2842 24.9752 24.1382 25.3459 24.3288L33.0873 28.3096C33.4579 28.5002 33.6039 28.9551 33.4133 29.3256C33.2794 29.5858 33.0153 29.7354 32.7416 29.7354Z" fill="#DA4A54"/>
<path d="M24.9982 27.0138C26.1105 27.0138 27.0121 26.1122 27.0121 24.9999C27.0121 23.8877 26.1105 22.9861 24.9982 22.9861C23.886 22.9861 22.9844 23.8877 22.9844 24.9999C22.9844 26.1122 23.886 27.0138 24.9982 27.0138Z" fill="#365E7D"/>
</g>
<defs>
<clipPath id="clip0_9_142">
<rect width="50" height="50" fill="white"/>
</clipPath>
</defs>
</svg>
