<svg width="50" height="50" viewBox="0 0 50 50" fill="none" xmlns="http://www.w3.org/2000/svg">
<g clip-path="url(#clip0_9_1)">
<path d="M47.025 33.8899L49.9561 15.1742C50.2609 13.275 48.9686 11.488 47.0693 11.1823L7.51747 4.83408C5.61826 4.52929 3.83135 5.82157 3.52656 7.72079L2.12109 16.4734V33.781L47.025 33.8899Z" fill="#146AA8"/>
<path d="M47.0669 11.1822L35.8333 9.37964C28.2885 20.9241 16.0918 28.9199 6.73828 33.7922L47.0225 33.8897L49.9536 15.1741C50.2584 13.2747 48.9661 11.4878 47.0669 11.1822Z" fill="#126099"/>
<path d="M3.48329 15.6025H43.541C45.4647 15.6025 47.0243 17.1622 47.0243 19.0858V41.7272C47.0243 43.6508 45.4647 45.2105 43.541 45.2105H3.48329C1.55966 45.2104 0 43.6508 0 41.7272V19.0858C0 17.1622 1.55966 15.6025 3.48329 15.6025Z" fill="#4398D1"/>
<path d="M43.5413 15.6025H42.8447C34.6241 30.1967 19.2638 40.2076 9.88672 45.2104H43.5413C45.465 45.2104 47.0246 43.6507 47.0246 41.7271V19.0858C47.0246 17.1622 45.465 15.6025 43.5413 15.6025Z" fill="#3E8CC7"/>
<path d="M13.0637 19.9568H4.35547V26.9234H13.0637V19.9568Z" fill="#FDB62F"/>
<path d="M6.96796 22.5693H4.35547V24.3109H6.96796V22.5693Z" fill="#FD7B2F"/>
<path d="M13.0656 22.5693H10.4531V24.3109H13.0656V22.5693Z" fill="#FD7B2F"/>
<path d="M38.315 40.8564C40.7197 40.8564 42.6691 38.907 42.6691 36.5023C42.6691 34.0976 40.7197 32.1482 38.315 32.1482C35.9103 32.1482 33.9609 34.0976 33.9609 36.5023C33.9609 38.907 35.9103 40.8564 38.315 40.8564Z" fill="#FDB62F"/>
<path d="M33.0924 40.8564C35.4971 40.8564 37.4465 38.907 37.4465 36.5023C37.4465 34.0976 35.4971 32.1482 33.0924 32.1482C30.6877 32.1482 28.7383 34.0976 28.7383 36.5023C28.7383 38.907 30.6877 40.8564 33.0924 40.8564Z" fill="#DE4C3C"/>
<path d="M8.70927 33.019H3.48438V34.7606H8.70927V33.019Z" fill="#87CED9"/>
<path d="M17.4163 33.019H12.1914V34.7606H17.4163V33.019Z" fill="#87CED9"/>
<path d="M26.1272 33.019H20.9023V34.7606H26.1272V33.019Z" fill="#87CED9"/>
<path d="M26.1257 38.2441H3.48438V39.9857H26.1257V38.2441Z" fill="#87CED9"/>
<path d="M32.2221 19.9568H30.4805V23.4401H32.2221V19.9568Z" fill="#87CED9"/>
<path d="M35.7064 19.9568H33.9648V23.4401H35.7064V19.9568Z" fill="#87CED9"/>
<path d="M39.1869 19.9568H37.4453V23.4401H39.1869V19.9568Z" fill="#87CED9"/>
<path d="M42.6713 19.9568H40.9297V23.4401H42.6713V19.9568Z" fill="#87CED9"/>
</g>
<defs>
<clipPath id="clip0_9_1">
<rect width="50" height="50" fill="white"/>
</clipPath>
</defs>
</svg>
