<svg width="50" height="50" viewBox="0 0 50 50" fill="none" xmlns="http://www.w3.org/2000/svg">
<g clip-path="url(#clip0_9_83)">
<path d="M47.7272 34.5455H2.27275C1.02275 34.5455 0 33.5228 0 32.2728V7.27275C0 6.02275 1.02275 5 2.27275 5H47.7273C48.9773 5 50.0001 6.02275 50.0001 7.27275V32.2728C50 33.5228 48.9772 34.5455 47.7272 34.5455Z" fill="#0E9347"/>
<path d="M42.0447 25.4546C39.4311 25.4546 37.0447 26.7046 35.6811 28.75C34.5447 28.1819 33.2947 27.7273 31.8175 27.7273C27.8402 27.7273 24.5447 30.6819 23.9766 34.5455H47.7266C48.8629 34.5455 49.772 33.7501 49.9993 32.6137C49.5447 28.6364 46.1357 25.4546 42.0447 25.4546Z" fill="#0D8944"/>
<path d="M43.1825 32.2728H6.81885C6.81885 29.7728 4.77344 27.7274 2.27344 27.7274V11.8184C4.77344 11.8184 6.81885 9.77295 6.81885 7.27295H43.1825C43.1825 9.77295 45.2279 11.8184 47.7279 11.8184V27.7274C45.2279 27.7274 43.1825 29.7728 43.1825 32.2728Z" fill="#3BB54A"/>
<path d="M42.0426 25.4546C39.4289 25.4546 37.0426 26.7046 35.6789 28.75C34.5426 28.1819 33.2926 27.7273 31.8153 27.7273C28.6335 27.7273 25.9062 29.5455 24.6562 32.2728H43.179C43.179 29.7728 45.1108 27.8409 47.6108 27.7273C46.1335 26.3637 44.2018 25.4546 42.0426 25.4546Z" fill="#0E9347"/>
<path d="M24.9972 29.9999C30.0179 29.9999 34.0881 25.421 34.0881 19.7727C34.0881 14.1243 30.0179 9.54541 24.9972 9.54541C19.9764 9.54541 15.9062 14.1243 15.9062 19.7727C15.9062 25.421 19.9764 29.9999 24.9972 29.9999Z" fill="#0E9347"/>
<path d="M11.3626 22.0453C12.6178 22.0453 13.6354 21.0277 13.6354 19.7725C13.6354 18.5173 12.6178 17.4998 11.3626 17.4998C10.1074 17.4998 9.08984 18.5173 9.08984 19.7725C9.08984 21.0277 10.1074 22.0453 11.3626 22.0453Z" fill="#0E9347"/>
<path d="M38.636 22.0453C39.8912 22.0453 40.9088 21.0277 40.9088 19.7725C40.9088 18.5173 39.8912 17.4998 38.636 17.4998C37.3808 17.4998 36.3633 18.5173 36.3633 19.7725C36.3633 21.0277 37.3808 22.0453 38.636 22.0453Z" fill="#0E9347"/>
<path d="M26.1349 18.6365H23.8621C23.1803 18.6365 22.7258 18.1819 22.7258 17.5001C22.7258 16.8183 23.1804 16.3638 23.8621 16.3638H27.2712C27.953 16.3638 28.4075 15.9092 28.4075 15.2275C28.4075 14.5457 27.9529 14.0912 27.2712 14.0912H26.1349C26.1349 13.4093 25.6803 12.9548 24.9985 12.9548C24.3167 12.9548 23.8622 13.4094 23.8622 14.0912C21.9304 14.0912 20.4531 15.5684 20.4531 17.5002C20.4531 19.4321 21.9304 20.9093 23.8622 20.9093H26.135C26.8168 20.9093 27.2713 21.3639 27.2713 22.0457C27.2713 22.7275 26.8167 23.182 26.135 23.182H22.7259C22.044 23.182 21.5896 23.6366 21.5896 24.3183C21.5896 25.0001 22.0441 25.4546 22.7259 25.4546H23.8622C23.8622 26.1365 24.3168 26.591 24.9985 26.591C25.6804 26.591 26.1349 26.1364 26.1349 25.4546C28.0667 25.4546 29.5439 23.9774 29.5439 22.0456C29.5439 20.1137 28.0667 18.6365 26.1349 18.6365Z" fill="#89C763"/>
<path d="M29.5444 43.6365C33.9376 43.6365 37.499 40.0751 37.499 35.6819C37.499 31.2887 33.9376 27.7273 29.5444 27.7273C25.1512 27.7273 21.5898 31.2887 21.5898 35.6819C21.5898 40.0751 25.1512 43.6365 29.5444 43.6365Z" fill="#FFCA5D"/>
<path d="M39.771 41.3638C44.1642 41.3638 47.7256 37.8024 47.7256 33.4092C47.7256 29.016 44.1642 25.4546 39.771 25.4546C35.3778 25.4546 31.8164 29.016 31.8164 33.4092C31.8164 37.8024 35.3778 41.3638 39.771 41.3638Z" fill="#F6B545"/>
<path d="M39.771 25.4546C35.3392 25.4546 31.8164 28.9773 31.8164 33.4092C31.8164 37.841 35.3392 41.3638 39.771 41.3638C44.2028 41.3638 47.7256 37.841 47.7256 33.4092C47.7256 28.9773 44.2028 25.4546 39.771 25.4546ZM39.771 39.091C36.5892 39.091 34.0892 36.591 34.0892 33.4092C34.0892 30.2273 36.5892 27.7273 39.771 27.7273C42.9528 27.7273 45.4528 30.2273 45.4528 33.4092C45.4528 36.591 42.9528 39.091 39.771 39.091Z" fill="#FFCB5B"/>
<path d="M39.7734 41.2498C44.2053 41.3635 47.728 37.7271 47.728 33.4089H47.6144C47.0462 33.4089 46.5916 33.8635 46.478 34.4317C46.2508 36.0226 45.4553 37.4998 44.3189 38.5226C43.4099 39.4317 42.1599 39.9998 40.7962 40.2271C40.2279 40.2271 39.7734 40.6817 39.7734 41.2498Z" fill="#F6B545"/>
<path d="M39.771 25.5683C35.3392 25.4546 31.8164 29.091 31.8164 33.4092H31.9301C32.4982 33.4092 32.9528 32.9546 33.0664 32.3864C33.2937 30.7955 34.0892 29.3183 35.2255 28.2955C36.1346 27.3864 37.3846 26.8183 38.7482 26.5909C39.3164 26.591 39.771 26.1364 39.771 25.5683Z" fill="#FFE27A"/>
<path d="M34.8853 34.2045C34.8853 31.0227 37.3853 28.5227 40.5671 28.5227C41.9308 28.5227 43.1808 28.9773 44.2034 29.8864C43.0671 28.5227 41.5898 27.7273 39.7717 27.7273C36.5898 27.7273 34.0898 30.2273 34.0898 33.4091C34.0898 35.2273 34.8853 36.7045 36.1353 37.7273C35.3398 36.8182 34.8853 35.5682 34.8853 34.2045Z" fill="#F19920"/>
<path d="M43.1832 36.932C43.0696 36.932 42.956 36.932 42.8423 36.8183C42.6151 36.5911 42.6151 36.2501 42.8423 36.0229C43.5241 35.3411 43.8651 34.3183 43.8651 33.4092C43.8651 33.0683 44.0923 32.8411 44.4332 32.8411C44.7742 32.8411 45.0014 33.0683 45.0014 33.4092C45.0014 34.6592 44.5468 35.9092 43.7514 36.8183C43.5241 36.932 43.2968 36.932 43.1832 36.932Z" fill="#FFCB5B"/>
<path d="M39.773 36.8183C39.0912 36.8183 38.6367 36.3637 38.6367 35.682V31.1366C38.6367 30.4547 39.0913 30.0002 39.773 30.0002C40.4548 30.0002 40.9094 30.4548 40.9094 31.1366V35.682C40.9094 36.3637 40.4549 36.8183 39.773 36.8183Z" fill="#F19920"/>
<path d="M43.9791 40.1136C43.1837 37.2727 41.1382 35 38.5245 33.9773C38.0699 31.3636 36.3654 29.091 34.2063 27.7273C32.8427 29.2045 31.9336 31.1364 31.9336 33.2955C31.9336 37.7273 35.4563 41.25 39.8882 41.25C41.3655 41.3636 42.7291 40.9091 43.9791 40.1136Z" fill="#F19920"/>
<path d="M36.1354 37.7272C35.3399 36.7045 34.7717 35.4545 34.7717 34.0909C34.7717 32.5 35.4535 31.0228 36.5898 30C36.3626 29.6591 36.1353 29.4318 35.908 29.2046C34.7717 30.2273 34.0898 31.7046 34.0898 33.4092C34.0899 35.2272 34.8854 36.7045 36.1354 37.7272Z" fill="#E78825"/>
<path d="M38.6367 34.0908V35.6817C38.6367 36.3636 39.0913 36.8181 39.773 36.8181C40.4548 36.8181 40.9094 36.3635 40.9094 35.6817V35.4545C40.2276 34.8862 39.4322 34.4317 38.6367 34.0908Z" fill="#E78825"/>
<path d="M43.9755 40.1134C43.7482 39.318 43.5209 38.6362 43.0664 37.9543C42.1573 38.6362 41.021 39.0907 39.771 39.0907C36.5892 39.0907 34.0892 36.5907 34.0892 33.4088C34.0892 31.7042 34.771 30.227 35.9073 29.2042C35.3392 28.6361 34.771 28.1815 34.0892 27.8406C32.7255 29.3178 31.8164 31.2497 31.8164 33.4087C31.8164 37.8406 35.3392 41.3633 39.771 41.3633C41.3619 41.3634 42.7255 40.9089 43.9755 40.1134Z" fill="#F6B545"/>
<path d="M43.6371 39.0911C42.8417 39.6592 41.8189 40.0001 40.7962 40.2274C40.228 40.3411 39.7734 40.7956 39.7734 41.3637C41.3644 41.3637 42.728 40.9091 43.978 40.1137C43.8645 39.7728 43.7508 39.432 43.6371 39.0911Z" fill="#F19920"/>
<path d="M34.0892 27.8408C32.7255 29.3181 31.8164 31.2499 31.8164 33.409H31.9301C32.4982 33.409 32.9528 32.9544 33.0664 32.3862C33.2937 30.7953 34.0892 29.4316 35.1118 28.409C34.771 28.2953 34.4301 28.0681 34.0892 27.8408Z" fill="#FFCB5B"/>
<path d="M29.5444 43.6365C33.9376 43.6365 37.499 40.0751 37.499 35.6819C37.499 31.2887 33.9376 27.7273 29.5444 27.7273C25.1512 27.7273 21.5898 31.2887 21.5898 35.6819C21.5898 40.0751 25.1512 43.6365 29.5444 43.6365Z" fill="#F6B545"/>
<path d="M28.4102 41.3638C28.4102 42.1592 28.5238 42.841 28.7511 43.6365C28.9783 43.6365 29.3192 43.6365 29.5465 43.6365C33.9783 43.6365 37.5011 40.1138 37.5011 35.6819C37.5011 34.8865 37.3874 34.2047 37.1602 33.4092C36.9329 33.4092 36.592 33.4092 36.3647 33.4092C31.9329 33.4093 28.4102 36.932 28.4102 41.3638Z" fill="#F19920"/>
<path d="M29.5444 27.7273C25.1126 27.7273 21.5898 31.25 21.5898 35.6819C21.5898 40.1137 25.1126 43.6365 29.5444 43.6365C33.9763 43.6365 37.499 40.1136 37.499 35.6819C37.499 31.2501 33.9763 27.7273 29.5444 27.7273ZM29.5444 41.3636C26.3626 41.3636 23.8626 38.8636 23.8626 35.6818C23.8626 32.5 26.3626 30 29.5444 30C32.7263 30 35.2263 32.5 35.2263 35.6818C35.2263 38.8636 32.7263 41.3636 29.5444 41.3636Z" fill="#FFCB5B"/>
<path d="M29.5469 43.5227C33.9787 43.6364 37.5015 40 37.5015 35.6819H37.3878C36.8196 35.6819 36.365 36.1365 36.2515 36.7046C36.0242 38.2956 35.2287 39.7728 34.0924 40.7956C33.1833 41.7046 31.9333 42.2728 30.5696 42.5001C30.0015 42.5 29.5469 42.9545 29.5469 43.5227Z" fill="#F6B545"/>
<path d="M29.5444 27.841C25.1126 27.7273 21.5898 31.3637 21.5898 35.6819H21.7035C22.2717 35.6819 22.7263 35.2273 22.8398 34.6591C23.0671 33.0682 23.8626 31.591 24.9989 30.5682C25.908 29.6591 27.158 29.091 28.5217 28.8636C29.0899 28.8636 29.5444 28.4091 29.5444 27.841Z" fill="#FFE27A"/>
<path d="M24.6588 36.4772C24.6588 33.2954 27.1588 30.7954 30.3406 30.7954C31.7043 30.7954 32.9543 31.25 33.977 32.1591C32.8406 30.7954 31.3633 30 29.5451 30C26.3633 30 23.8633 32.5 23.8633 35.6818C23.8633 37.5 24.6587 38.9772 25.9087 40C25.1134 39.0909 24.6588 37.8409 24.6588 36.4772Z" fill="#F19920"/>
<path d="M32.9528 39.2044C32.8391 39.2044 32.7255 39.2044 32.6118 39.0908C32.3846 38.8635 32.3846 38.5226 32.6118 38.2954C33.2937 37.6135 33.6346 36.5908 33.6346 35.6817C33.6346 35.3408 33.8618 35.1135 34.2028 35.1135C34.5437 35.1135 34.7709 35.3408 34.7709 35.6817C34.7709 36.9317 34.3163 38.1817 33.5209 39.0908C33.2936 39.2044 33.0663 39.2044 32.9528 39.2044Z" fill="#FFCB5B"/>
<path d="M29.5465 39.091C28.8646 39.091 28.4102 38.6364 28.4102 37.9547V33.4093C28.4102 32.7274 28.8647 32.2729 29.5465 32.2729C30.2283 32.2729 30.6828 32.7275 30.6828 33.4093V37.9547C30.6829 38.6364 30.2283 39.091 29.5465 39.091Z" fill="#F19920"/>
<path d="M34.7737 33.5229C35.001 34.2047 35.2283 34.8865 35.2283 35.6819C35.2283 38.8638 32.7283 41.3638 29.5465 41.3638C29.2056 41.3638 28.7511 41.3638 28.4102 41.2501V41.3638C28.4102 42.1592 28.5238 42.841 28.7511 43.6365C28.9783 43.6365 29.3192 43.6365 29.5465 43.6365C33.9783 43.6365 37.5011 40.1138 37.5011 35.6819C37.5011 34.8865 37.3874 34.2047 37.1602 33.4092C36.9329 33.4092 36.592 33.4092 36.3647 33.4092C35.7964 33.4093 35.3419 33.4093 34.7737 33.5229Z" fill="#F6B545"/>
<path d="M35.228 50.4548C39.6212 50.4548 43.1826 46.8934 43.1826 42.5002C43.1826 38.107 39.6212 34.5457 35.228 34.5457C30.8348 34.5457 27.2734 38.107 27.2734 42.5002C27.2734 46.8934 30.8348 50.4548 35.228 50.4548Z" fill="#F6B545"/>
<path d="M35.228 34.5457C30.7962 34.5457 27.2734 38.0684 27.2734 42.5002C27.2734 46.9321 30.7962 50.4548 35.228 50.4548C39.6599 50.4548 43.1826 46.9321 43.1826 42.5002C43.1826 38.0684 39.6599 34.5457 35.228 34.5457ZM35.228 48.1821C32.0462 48.1821 29.5462 45.6821 29.5462 42.5002C29.5462 39.3184 32.0462 36.8184 35.228 36.8184C38.4099 36.8184 40.9099 39.3184 40.9099 42.5002C40.9099 45.6821 38.4099 48.1821 35.228 48.1821Z" fill="#FFCB5B"/>
<path d="M35.2266 50.3409C39.6584 50.4546 43.1812 46.8182 43.1812 42.5H43.0675C42.4993 42.5 42.0447 42.9546 41.9312 43.5228C41.7039 45.1137 40.9084 46.5909 39.7721 47.6137C38.863 48.5227 37.613 49.0909 36.2493 49.3183C35.6812 49.3182 35.2266 49.7726 35.2266 50.3409Z" fill="#F6B545"/>
<path d="M35.228 34.6591C30.7962 34.5454 27.2734 38.1818 27.2734 42.5H27.3871C27.9553 42.5 28.4099 42.0454 28.5234 41.4772C28.7507 39.8863 29.5462 38.4091 30.6825 37.3863C31.5916 36.4773 32.8416 35.9091 34.2053 35.6817C34.7735 35.6818 35.228 35.2273 35.228 34.6591Z" fill="#FFE27A"/>
<path d="M30.3424 43.2954C30.3424 40.1135 32.8424 37.6135 36.0242 37.6135C37.3879 37.6135 38.6379 38.0681 39.6605 38.9772C38.5242 37.6135 37.0469 36.8181 35.2287 36.8181C32.0469 36.8181 29.5469 39.3181 29.5469 42.5C29.5469 44.3181 30.3423 45.7954 31.5923 46.8181C30.7969 45.909 30.3424 44.659 30.3424 43.2954Z" fill="#F19920"/>
<path d="M38.6364 46.0226C38.5227 46.0226 38.4091 46.0226 38.2954 45.9089C38.0682 45.6816 38.0682 45.3407 38.2954 45.1135C38.9773 44.4316 39.3182 43.4089 39.3182 42.4998C39.3182 42.1589 39.5454 41.9316 39.8864 41.9316C40.2273 41.9316 40.4545 42.1589 40.4545 42.4998C40.4545 43.7498 39.9999 44.9998 39.2045 45.9089C38.9773 46.0226 38.75 46.0226 38.6364 46.0226Z" fill="#FFCB5B"/>
<path d="M35.2262 45.9092C34.5443 45.9092 34.0898 45.4546 34.0898 44.7729V40.2274C34.0898 39.5456 34.5444 39.0911 35.2262 39.0911C35.908 39.0911 36.3625 39.5457 36.3625 40.2274V44.7728C36.3626 45.4546 35.908 45.9092 35.2262 45.9092Z" fill="#F19920"/>
</g>
<defs>
<clipPath id="clip0_9_83">
<rect width="50" height="50" fill="white"/>
</clipPath>
</defs>
</svg>
