<svg width="85" height="92" viewBox="0 0 85 92" fill="none" xmlns="http://www.w3.org/2000/svg">
<g filter="url(#filter0_f_6_113)">
<rect x="20.9375" y="45.3235" width="43.2066" height="26.5887" fill="#FBA457" fill-opacity="0.5"/>
</g>
<rect x="20.9375" y="45.3235" width="43.2066" height="26.5887" fill="#FBA457"/>
<path d="M79.9482 75.4445H75.2773L75.7079 74.9316C77.9132 72.3054 78.5988 68.7895 77.5422 65.5271L73.3223 52.4981C72.2636 49.2293 69.643 46.775 66.3121 45.9324L64.2151 45.402C63.3911 44.2453 62.0961 43.4462 60.6117 43.2896L60.613 38.1004C60.6132 37.4285 60.0687 36.8839 59.397 36.8837C58.7253 36.8837 58.1805 37.428 58.1804 38.0997L58.1791 43.2608H55.7503L52.7417 42.4999C51.9803 42.3071 51.4134 41.6807 51.2979 40.9038L50.6067 36.2617C53.3947 34.0669 55.4601 31.1104 56.0838 27.578H57.0872C57.4697 27.578 57.8379 27.516 58.1831 27.4031L58.1818 32.4035C58.1817 33.0754 58.7261 33.62 59.3978 33.6202C60.0695 33.6202 60.6143 33.0759 60.6145 32.4042C60.6151 31.4342 60.6185 20.0701 60.6185 16.3252C60.6261 7.55664 53.5324 0.455078 44.7622 0.455078H40.3221L40.27 0.45524C40.2604 0.45524 40.251 0.456052 40.2413 0.456052C31.5011 0.499382 24.4581 7.5904 24.4656 16.3245C24.4656 20.4094 24.4632 16.2123 24.4726 43.2894C22.9882 43.4462 21.6931 44.2451 20.8692 45.4019L18.7722 45.9322C15.4413 46.7748 12.8207 49.2292 11.762 52.4979L7.5421 65.5269C6.48546 68.7895 7.17112 72.3052 9.37624 74.9313L9.80694 75.4443H5.13607C2.90287 75.4443 1.08594 77.2612 1.08594 79.4944C1.08594 81.7278 2.90271 83.5447 5.13607 83.5447H79.9484C82.1816 83.5447 83.9985 81.7278 83.9985 79.4946C83.9983 77.2614 82.1816 75.4445 79.9482 75.4445ZM71.008 53.2473L75.2278 66.2763C76.0247 68.7363 75.5076 71.387 73.8449 73.3672L72.1009 75.4445H69.86C70.1074 74.7797 70.2382 74.0709 70.2382 73.3442C70.2382 71.9534 69.1068 70.8219 67.716 70.8219H65.1562V48.3423C65.1562 48.2772 65.1537 48.2126 65.1513 48.148C65.3123 48.2319 69.551 48.7488 71.008 53.2473ZM67.7162 73.2546C67.7655 73.2546 67.8056 73.2947 67.8056 73.344C67.8056 74.1064 67.5632 74.8352 67.1214 75.4443H17.9629C17.5211 74.8351 17.2787 74.1062 17.2787 73.344C17.2787 73.2945 17.3188 73.2546 17.3681 73.2546H67.7162ZM58.1839 24.0858C58.163 24.6734 57.6797 25.1452 57.0872 25.1452H56.275L56.2873 20.2148H57.089C57.6854 20.2148 58.1713 20.6936 58.1847 21.2867L58.1839 24.0858ZM36.9375 6.28661C36.9375 4.42666 38.423 2.90849 40.2619 2.88934C40.282 2.88934 40.302 2.88788 40.3221 2.88788H44.7622C52.1852 2.88788 58.1924 8.89809 58.1859 16.3239L58.1855 17.7822C56.513 17.7822 53.3381 17.7822 48.3607 17.7822C42.0619 17.7822 36.9376 12.6577 36.9376 6.35899L36.9375 6.28661ZM37.3135 14.7106C39.8456 18.0517 43.8547 20.2148 48.3605 20.2148H53.8543L53.8414 25.4018C53.8414 29.5298 51.4241 32.6668 48.6989 34.6702C48.681 34.6802 45.4324 37.1523 42.542 37.2328C39.8719 37.1583 36.5256 34.75 36.3878 34.6716C33.6614 32.6676 31.2426 29.5287 31.2426 25.3961C31.215 19.3096 31.2418 25.2023 31.2131 18.8662C31.2103 18.244 31.7129 17.7389 32.3354 17.7389C34.4982 17.739 36.3778 16.5081 37.3135 14.7106ZM49.732 43.2608H35.3523C35.7861 42.6881 36.0821 42.0064 36.1929 41.2621L36.7132 37.7675C38.9198 39.026 41.0673 39.6348 42.5162 39.6658C42.5249 39.6659 42.5335 39.6661 42.5423 39.6661C42.5511 39.6661 42.5597 39.6659 42.5684 39.6658C44.0173 39.6348 46.1648 39.0262 48.3714 37.7675L48.8917 41.2621C49.0022 42.0064 49.2982 42.6881 49.732 43.2608ZM27.9972 27.578H29.001C29.6241 31.1069 31.686 34.0639 34.4777 36.2617L33.7866 40.9038C33.671 41.6807 33.1042 42.3071 32.3429 42.4997L29.334 43.2607H26.9052L26.9012 27.4031C27.2465 27.5162 27.6146 27.578 27.9972 27.578ZM26.9004 24.0858L26.8997 21.2867C26.9132 20.6936 27.3991 20.2148 27.9955 20.2148H28.7866L28.809 25.1452H27.9972C27.4046 25.1454 26.9213 24.6734 26.9004 24.0858ZM34.9712 3.99629C34.6715 4.70011 34.5048 5.47421 34.5048 6.28644C34.5212 6.45311 34.3901 8.76226 35.5125 11.537V12.1293C35.5125 13.881 34.0873 15.3062 32.3356 15.3062C30.7361 15.3062 29.4023 16.3541 28.9489 17.782H27.9955C27.6126 17.782 27.2442 17.844 26.8989 17.9573L26.8984 16.3231C26.8935 10.7512 30.2592 6.04497 34.9712 3.99629ZM9.8566 66.2765L14.0765 53.2475C15.5328 48.7509 19.7691 48.2336 19.9332 48.1482C19.9307 48.2128 19.9283 48.2772 19.9283 48.3425L19.9281 61.2377C19.9281 61.9096 20.4728 61.2377 21.1445 61.2377C21.8163 61.2377 22.3608 61.9096 22.3608 61.2377L22.3609 48.3425C22.3609 46.8819 23.5492 45.6936 25.0097 45.6936H60.0749C61.5354 45.6936 62.7237 46.8819 62.7237 48.3425V70.8219H22.3608V61.2377C22.3608 60.5659 21.8161 60.0214 21.1445 60.0214C20.4726 60.0214 19.9281 60.5659 19.9281 61.2377V70.8219H17.3683C15.9775 70.8219 14.846 71.9534 14.846 73.3442C14.846 74.0709 14.977 74.7799 15.2243 75.4445H12.9835L11.2394 73.367C9.57682 71.3872 9.05978 68.7363 9.8566 66.2765ZM79.9482 81.1119H5.13607C4.24415 81.1119 3.51874 80.3863 3.51874 79.4946C3.51874 78.6027 4.24432 77.8773 5.13607 77.8773H79.9484C80.8403 77.8773 81.5657 78.6028 81.5657 79.4946C81.5657 80.3863 80.8401 81.1119 79.9482 81.1119Z" fill="#222222"/>
<ellipse cx="42.5423" cy="58.2855" rx="3.32359" ry="3.32358" fill="#F6FAFD"/>
<path d="M42.5424 63.9617C45.6136 63.9617 48.1122 61.463 48.1122 58.3919C48.1122 55.3209 45.6136 52.822 42.5424 52.822C39.4712 52.822 36.9727 55.3207 36.9727 58.3918C36.9727 61.4629 39.4712 63.9617 42.5424 63.9617ZM42.5424 55.2548C44.2722 55.2548 45.6795 56.662 45.6795 58.3919C45.6795 60.1219 44.2722 61.5291 42.5424 61.5291C40.8126 61.5291 39.4053 60.1219 39.4053 58.3919C39.4053 56.662 40.8126 55.2548 42.5424 55.2548Z" fill="#222222"/>
<defs>
<filter id="filter0_f_6_113" x="0.9375" y="25.3235" width="83.207" height="66.5886" filterUnits="userSpaceOnUse" color-interpolation-filters="sRGB">
<feFlood flood-opacity="0" result="BackgroundImageFix"/>
<feBlend mode="normal" in="SourceGraphic" in2="BackgroundImageFix" result="shape"/>
<feGaussianBlur stdDeviation="10" result="effect1_foregroundBlur_6_113"/>
</filter>
</defs>
</svg>
