<svg width="102" height="90" viewBox="0 0 102 90" fill="none" xmlns="http://www.w3.org/2000/svg">
<path d="M69.1647 67.0888L65.6416 65.0035C64.5676 64.3688 63.3389 64.0338 62.0873 64.0332H56.785C55.6995 64.0312 54.6188 64.1693 53.5691 64.4429L37.5932 68.6797C35.8465 69.1562 34.4436 70.4414 33.8316 72.1264L19.7795 64.6157C18.64 63.9751 17.3059 63.7576 16.0185 64.0018C15.5329 64.0866 15.0621 64.2394 14.6196 64.4556C13.6206 64.928 12.7919 65.6915 12.2434 66.6424C11.7638 67.4705 11.5119 68.4081 11.5119 69.3617C11.497 71.3089 12.5413 73.1134 14.2461 74.089L39.4312 88.9762C40.5254 89.6455 41.7858 89.9998 43.0725 89.9998H62.5635C63.4342 90.0005 64.2967 89.8377 65.1059 89.5214L69.1647 87.9378V89.9998H82.9981V62.6665H69.1647V67.0888ZM64.0894 86.9796C63.6051 87.1684 63.0883 87.2658 62.5676 87.2665H43.0725C42.2931 87.2658 41.5291 87.049 40.8685 86.6406L15.649 71.736C14.7919 71.2469 14.2671 70.3407 14.2738 69.363C14.2758 68.8839 14.4035 68.4128 14.6446 67.9964C14.9202 67.5246 15.335 67.1462 15.8328 66.9126C16.0523 66.8072 16.2846 66.7325 16.5244 66.6911C16.6994 66.6591 16.877 66.6424 17.0547 66.6424C17.5302 66.641 17.9976 66.7638 18.4103 66.9974L33.6479 75.132C33.6655 75.2154 33.6655 75.2975 33.6878 75.3809C34.343 77.7666 36.5335 79.4235 39.036 79.4262C39.806 79.3568 40.5686 79.222 41.3157 79.0245L55.688 75.2248L54.9748 72.5842L40.649 76.3672C40.0181 76.5107 39.2042 76.6748 39.036 76.6889C37.7864 76.6909 36.6908 75.8661 36.3619 74.6756C36.3173 74.5101 36.291 74.3406 36.2815 74.1697C36.2815 74.1697 36.2707 73.8387 36.2815 73.7226C36.3869 72.5795 37.1974 71.6199 38.3167 71.3123L54.2858 67.0915C55.1011 66.8759 55.9413 66.7665 56.785 66.7665H62.0873C62.8384 66.7665 63.5753 66.968 64.219 67.3491L69.1647 70.2746V84.9976L64.0894 86.9796ZM71.9314 65.3998H80.2314V87.2665H71.9314V65.3998Z" fill="#222222"/>
<g filter="url(#filter0_f_6_153)">
<path d="M27.3303 28L26.8242 52.5V53H81.4828V20H42.0071L49.0925 28.5L44.0315 33.5L34.4157 26L27.3303 28Z" fill="#1DBF73" fill-opacity="0.5"/>
</g>
<path d="M27.3303 28L26.8242 52.5V53H81.4828V20H42.0071L49.0925 28.5L44.0315 33.5L34.4157 26L27.3303 28Z" fill="#1DBF73"/>
<path d="M57.0544 18.9334L49.6338 11.6029C47.3042 9.28797 44.1343 7.99071 40.8306 8.00005H23.439C22.3657 8.00138 21.3073 8.24896 20.3461 8.72142L17.2457 10.2536C16.6243 10.5626 15.934 10.71 15.239 10.6827L13.8333 10.634V8.00005H0V38.0667H13.8333V33.9667H16.1853L17.0222 34.5132C19.364 36.0494 22.0908 36.9169 24.9 37.0184V54.4667H83V18.9334H57.0544ZM11.0667 35.3334H2.76667V10.7334H11.0667V35.3334ZM18.5534 32.239L17.0147 31.2334H13.8333V13.3686L15.1376 13.4147C16.296 13.4554 17.4457 13.2091 18.4825 12.6986L21.5801 11.1665C22.157 10.8815 22.7939 10.7334 23.439 10.7334H40.8306C43.4001 10.726 45.8661 11.735 47.6777 13.5348L53.1422 18.9334H41.727L38.3693 15.6168L36.4138 17.5487L46.1856 27.2034C47.2711 28.2712 47.2745 30.0062 46.1937 31.0792C45.1123 32.1516 43.3562 32.1549 42.2707 31.0872L34.1092 23.024L33.1406 23.8442C30.4664 26.0877 26.5576 26.1451 23.8166 23.9803L23.0148 23.3383L21.2715 25.4618L22.082 26.1111C22.9297 26.7804 23.8814 27.3102 24.9 27.6799V34.2837C22.6359 34.1843 20.4413 33.4776 18.5534 32.239V32.239ZM38.2315 30.9598L40.3186 33.0225C42.4855 35.1312 45.9641 35.1345 48.1343 33.0291C46.1039 36.1355 46.905 40.2695 49.9533 42.415C53.0017 44.5604 57.2185 43.9578 59.5266 41.0476C61.8346 38.1368 61.4178 33.9474 58.5796 31.537C55.742 29.1267 51.4866 29.3475 48.9206 32.0382C49.8655 30.5721 50.0344 28.745 49.3738 27.1334H67.8982C68.4932 30.5721 71.2194 33.2654 74.7 33.8533V39.5468C71.2194 40.1347 68.4932 42.828 67.8982 46.2667H40.0018C39.4068 42.828 36.6806 40.1347 33.2 39.5468V33.8533C35.1771 33.5243 36.965 32.4959 38.2315 30.9598V30.9598ZM49.8 36.7C49.8 34.4358 51.6582 32.6 53.95 32.6C56.2418 32.6 58.1 34.4358 58.1 36.7C58.1 38.9643 56.2418 40.8 53.95 40.8C51.6582 40.8 49.8 38.9643 49.8 36.7ZM80.2333 51.7334H27.6667V28.2525C29.8599 28.4153 32.0463 27.8628 33.8917 26.6809L36.2517 29.0125C35.2135 30.4059 33.5681 31.23 31.8167 31.2334H30.4333V42.1667H31.8167C34.8724 42.1667 37.35 44.6144 37.35 47.6334V49H70.55V47.6334C70.55 44.6144 73.0276 42.1667 76.0833 42.1667H77.4667V31.2334H76.0833C73.0276 31.2334 70.55 28.7857 70.55 25.7667V24.4H47.2603L44.4936 21.6667H80.2333V51.7334Z" fill="#222222"/>
<defs>
<filter id="filter0_f_6_153" x="6.82422" y="0" width="94.6602" height="73" filterUnits="userSpaceOnUse" color-interpolation-filters="sRGB">
<feFlood flood-opacity="0" result="BackgroundImageFix"/>
<feBlend mode="normal" in="SourceGraphic" in2="BackgroundImageFix" result="shape"/>
<feGaussianBlur stdDeviation="10" result="effect1_foregroundBlur_6_153"/>
</filter>
</defs>
</svg>
